<svg width="20" height="19" viewBox="0 0 20 19" fill="none" xmlns="http://www.w3.org/2000/svg">
<path d="M13.1358 7.06734C12.5468 7.71538 12.0104 8.35017 11.422 8.94267C10.445 9.92696 9.43329 10.8832 8.44062 11.8548C8.32473 11.9684 8.25138 11.9791 8.12653 11.8599C7.74021 11.493 7.3427 11.1364 6.9435 10.7813C6.84832 10.6968 6.8388 10.6422 6.9379 10.55C8.55596 9.05476 10.2737 7.66189 12.0877 6.36683C12.1941 6.29092 12.2652 6.27971 12.3671 6.376C12.6084 6.60475 12.8614 6.82178 13.1358 7.06734Z" fill="#1B1714"/>
<path d="M12.521 5.0351C12.4689 4.76203 12.4135 4.47673 12.3603 4.19143C12.2668 3.68502 12.1783 3.17709 12.0804 2.67119C12.0333 2.42818 12.0843 2.22796 12.2858 2.04761C12.9638 1.44186 13.6307 0.826429 14.3036 0.216602C14.5808 -0.034563 14.7896 -0.0625835 15.1306 0.108086C15.6871 0.386762 16.2419 0.668495 16.7968 0.949718C16.8494 0.97672 16.8976 1.01085 16.9278 1.0297C15.4598 2.3645 13.9991 3.69165 12.521 5.0351Z" fill="#1B1714"/>
<path d="M14.4805 6.79631C15.939 5.47018 17.3981 4.14303 18.8717 2.80263C18.8896 2.8276 18.9327 2.88058 18.968 2.93764C19.2709 3.4308 19.5738 3.92447 19.8744 4.41865C20.0693 4.7391 20.0418 4.93117 19.7608 5.18794C19.0906 5.7998 18.4148 6.40759 17.7485 7.02302C17.5638 7.19369 17.3555 7.25228 17.1036 7.21407C16.2716 7.08721 15.4402 6.96138 14.6082 6.83401C14.5561 6.82535 14.5063 6.80395 14.4805 6.79631Z" fill="#1B1714"/>
<path d="M13.6245 6.52222C13.3547 6.27768 13.1038 6.04944 12.8412 5.81101C12.8586 5.78859 12.8816 5.75038 12.914 5.72083C14.5478 4.2332 16.1826 2.74659 17.8169 1.25947C17.9681 1.12192 18.1422 1.03582 18.3605 1.07046C18.7665 1.13465 18.9535 1.5463 18.7245 1.86828C18.683 1.92636 18.6287 1.9773 18.5744 2.02672C16.9704 3.48735 15.3657 4.94747 13.7606 6.40759C13.7169 6.44733 13.6699 6.48401 13.6245 6.52222Z" fill="#1B1714"/>
<path d="M3.63176 13.6211C4.0931 14.0414 4.56508 14.4719 5.06673 14.9289C4.71681 15.1933 4.47214 15.5983 4.00912 15.7603C3.80924 15.8301 3.56065 15.8148 3.3395 15.7944C3.20737 15.7822 3.12339 15.7898 3.02933 15.8765C2.25725 16.5841 1.48126 17.2882 0.706384 17.9928C0.448839 18.2271 0.267438 18.2577 0.0994742 18.0967C-0.0634509 17.9413 -0.0287383 17.7869 0.222088 17.5587C0.986884 16.8628 1.75 16.1648 2.51928 15.4725C2.63405 15.369 2.68444 15.2809 2.62957 15.1265C2.52823 14.8428 2.58366 14.5585 2.8009 14.3399C3.0562 14.0826 3.35294 13.859 3.63176 13.6211Z" fill="#1B1714"/>
<path d="M6.36346 13.6863C6.11207 13.915 5.85789 14.1463 5.6121 14.3705C5.15076 13.9466 4.67654 13.5115 4.21912 13.0917C4.4593 12.8737 4.71741 12.6388 4.96712 12.4121C5.42062 12.8258 5.89596 13.2599 6.36346 13.6863Z" fill="#1B1714"/>
<path d="M7.68865 12.4987C7.45518 12.7086 7.20267 12.9343 6.97256 13.1412C6.50842 12.7173 6.02916 12.2802 5.56726 11.8578C5.78505 11.6525 6.03476 11.4171 6.26543 11.1996C6.73461 11.6286 7.20995 12.0621 7.68865 12.4987Z" fill="#1B1714"/>
</svg>
