<svg width="12" height="12" viewBox="0 0 12 12" fill="none" xmlns="http://www.w3.org/2000/svg">
<path fill-rule="evenodd" clip-rule="evenodd" d="M5.0887 0.414793L3.69734 3.52253L0.584365 4.02271C0.318945 4.08973 0.108702 4.29189 0.0314905 4.55465C-0.0457209 4.81722 0.0214833 5.1011 0.208315 5.30124L2.46012 7.71931L1.92762 11.1353C1.86235 11.3994 1.95645 11.6772 2.16871 11.847C2.38098 12.0171 2.67265 12.0481 2.91586 11.9266L5.69859 10.3148L8.48132 11.9266C8.72462 12.0474 9.01584 12.0162 9.22782 11.8463C9.4399 11.6766 9.53419 11.3992 9.46956 11.1355L8.93706 7.71931L11.1889 5.30124C11.3757 5.1011 11.4429 4.81722 11.3657 4.55465C11.2885 4.29189 11.0782 4.08973 10.8128 4.02271L7.69984 3.52253L6.30848 0.414793C6.20951 0.164522 5.96768 0 5.69859 0C5.4295 0 5.18767 0.164522 5.0887 0.414793Z" fill="#FFB536"/>
</svg>
