<svg width="275" height="81" viewBox="0 0 275 81" fill="none" xmlns="http://www.w3.org/2000/svg">
<path d="M229.303 68.448C223.884 68.448 219.404 67.1893 215.863 64.672C212.364 62.112 210.466 58.3787 210.167 53.472H225.271C225.484 56.0747 226.636 57.376 228.727 57.376C229.495 57.376 230.135 57.2053 230.647 56.864C231.202 56.48 231.479 55.904 231.479 55.136C231.479 54.0693 230.903 53.216 229.751 52.576C228.599 51.8933 226.807 51.1253 224.375 50.272C221.474 49.248 219.063 48.2453 217.143 47.264C215.266 46.2827 213.644 44.8533 212.279 42.976C210.914 41.0987 210.252 38.688 210.295 35.744C210.295 32.8 211.042 30.304 212.535 28.256C214.071 26.1653 216.14 24.5867 218.743 23.52C221.388 22.4533 224.354 21.92 227.639 21.92C233.186 21.92 237.58 23.2 240.823 25.76C244.108 28.32 245.836 31.9253 246.007 36.576H230.711C230.668 35.296 230.348 34.3787 229.751 33.824C229.154 33.2693 228.428 32.992 227.575 32.992C226.978 32.992 226.487 33.2053 226.103 33.632C225.719 34.016 225.527 34.5707 225.527 35.296C225.527 36.32 226.082 37.1733 227.191 37.856C228.343 38.496 230.156 39.2853 232.631 40.224C235.49 41.2907 237.836 42.3147 239.671 43.296C241.548 44.2773 243.17 45.6427 244.535 47.392C245.9 49.1413 246.583 51.3387 246.583 53.984C246.583 56.7573 245.9 59.2533 244.535 61.472C243.17 63.648 241.186 65.3547 238.583 66.592C235.98 67.8293 232.887 68.448 229.303 68.448Z" fill="#A61420"/>
<path d="M207.721 22.688V33.952H195.689V68H181.482V33.952H169.577V22.688H207.721Z" fill="#A61420"/>
<path d="M152.047 68L143.535 51.744H143.471V68H129.262V22.688H150.382C154.052 22.688 157.188 23.3493 159.79 24.672C162.393 25.952 164.335 27.7227 165.615 29.984C166.937 32.2027 167.599 34.72 167.599 37.536C167.599 40.5653 166.745 43.2533 165.038 45.6C163.374 47.9467 160.964 49.632 157.807 50.656L167.663 68H152.047ZM143.471 42.272H149.103C150.468 42.272 151.492 41.9733 152.174 41.376C152.857 40.736 153.199 39.7547 153.199 38.432C153.199 37.2373 152.836 36.2987 152.111 35.616C151.428 34.9333 150.425 34.592 149.103 34.592H143.471V42.272Z" fill="#A61420"/>
<path d="M108.818 61.152H93.7145L91.4745 68H76.5625L93.1385 22.688H109.523L126.034 68H111.058L108.818 61.152ZM105.362 50.464L101.266 37.856L97.1705 50.464H105.362Z" fill="#A61420"/>
<path d="M51.08 22.688C55.816 22.688 59.9547 23.648 63.496 25.568C67.08 27.488 69.832 30.1547 71.752 33.568C73.672 36.9813 74.632 40.864 74.632 45.216C74.632 49.5253 73.672 53.408 71.752 56.864C69.832 60.32 67.08 63.0507 63.496 65.056C59.9547 67.0187 55.816 68 51.08 68H32.2V22.688H51.08ZM49.8 55.328C53 55.328 55.5387 54.4533 57.416 52.704C59.2933 50.9547 60.232 48.4587 60.232 45.216C60.232 41.9733 59.2933 39.4773 57.416 37.728C55.5387 35.9787 53 35.104 49.8 35.104H46.408V55.328H49.8Z" fill="#A61420"/>
<path d="M226.303 68.448C220.884 68.448 216.404 67.1893 212.863 64.672C209.364 62.112 207.466 58.3787 207.167 53.472H222.271C222.484 56.0747 223.636 57.376 225.727 57.376C226.495 57.376 227.135 57.2053 227.647 56.864C228.202 56.48 228.479 55.904 228.479 55.136C228.479 54.0693 227.903 53.216 226.751 52.576C225.599 51.8933 223.807 51.1253 221.375 50.272C218.474 49.248 216.063 48.2453 214.143 47.264C212.266 46.2827 210.644 44.8533 209.279 42.976C207.914 41.0987 207.252 38.688 207.295 35.744C207.295 32.8 208.042 30.304 209.535 28.256C211.071 26.1653 213.14 24.5867 215.743 23.52C218.388 22.4533 221.354 21.92 224.639 21.92C230.186 21.92 234.58 23.2 237.823 25.76C241.108 28.32 242.836 31.9253 243.007 36.576H227.711C227.668 35.296 227.348 34.3787 226.751 33.824C226.154 33.2693 225.428 32.992 224.575 32.992C223.978 32.992 223.487 33.2053 223.103 33.632C222.719 34.016 222.527 34.5707 222.527 35.296C222.527 36.32 223.082 37.1733 224.191 37.856C225.343 38.496 227.156 39.2853 229.631 40.224C232.49 41.2907 234.836 42.3147 236.671 43.296C238.548 44.2773 240.17 45.6427 241.535 47.392C242.9 49.1413 243.583 51.3387 243.583 53.984C243.583 56.7573 242.9 59.2533 241.535 61.472C240.17 63.648 238.186 65.3547 235.583 66.592C232.98 67.8293 229.887 68.448 226.303 68.448Z" fill="#F3E5D0"/>
<path d="M204.721 22.688V33.952H192.689V68H178.482V33.952H166.577V22.688H204.721Z" fill="#F3E5D0"/>
<path d="M149.047 68L140.535 51.744H140.471V68H126.262V22.688H147.382C151.052 22.688 154.188 23.3493 156.79 24.672C159.393 25.952 161.335 27.7227 162.615 29.984C163.937 32.2027 164.599 34.72 164.599 37.536C164.599 40.5653 163.745 43.2533 162.038 45.6C160.374 47.9467 157.964 49.632 154.807 50.656L164.663 68H149.047ZM140.471 42.272H146.103C147.468 42.272 148.492 41.9733 149.174 41.376C149.857 40.736 150.199 39.7547 150.199 38.432C150.199 37.2373 149.836 36.2987 149.111 35.616C148.428 34.9333 147.425 34.592 146.103 34.592H140.471V42.272Z" fill="#F3E5D0"/>
<path d="M105.818 61.152H90.7145L88.4745 68H73.5625L90.1385 22.688H106.523L123.034 68H108.058L105.818 61.152ZM102.362 50.464L98.2665 37.856L94.1705 50.464H102.362Z" fill="#F3E5D0"/>
<path d="M48.08 22.688C52.816 22.688 56.9547 23.648 60.496 25.568C64.08 27.488 66.832 30.1547 68.752 33.568C70.672 36.9813 71.632 40.864 71.632 45.216C71.632 49.5253 70.672 53.408 68.752 56.864C66.832 60.32 64.08 63.0507 60.496 65.056C56.9547 67.0187 52.816 68 48.08 68H29.2V22.688H48.08ZM46.8 55.328C50 55.328 52.5387 54.4533 54.416 52.704C56.2933 50.9547 57.232 48.4587 57.232 45.216C57.232 41.9733 56.2933 39.4773 54.416 37.728C52.5387 35.9787 50 35.104 46.8 35.104H43.408V55.328H46.8Z" fill="#F3E5D0"/>
<path fill-rule="evenodd" clip-rule="evenodd" d="M274 9H1V80H274V9ZM0 8V81H275V8H0Z" fill="#F4E4C9"/>
<path d="M68 0H193V16H68V0Z" fill="#0D7A41"/>
<path d="M163.882 7.408C163.778 7.24 163.63 7.112 163.438 7.024C163.246 6.928 163.014 6.88 162.742 6.88C162.23 6.88 161.834 7.048 161.554 7.384C161.274 7.712 161.134 8.164 161.134 8.74C161.134 9.404 161.29 9.9 161.602 10.228C161.914 10.556 162.394 10.72 163.042 10.72C163.658 10.72 164.154 10.472 164.53 9.976H162.406V8.092H166.738V10.756C166.37 11.388 165.862 11.932 165.214 12.388C164.566 12.836 163.746 13.06 162.754 13.06C161.874 13.06 161.106 12.88 160.45 12.52C159.802 12.152 159.302 11.64 158.95 10.984C158.606 10.328 158.434 9.58 158.434 8.74C158.434 7.9 158.606 7.152 158.95 6.496C159.302 5.84 159.802 5.332 160.45 4.972C161.098 4.604 161.858 4.42 162.73 4.42C163.842 4.42 164.746 4.688 165.442 5.224C166.146 5.76 166.562 6.488 166.69 7.408H163.882Z" fill="#E9EA4F"/>
<path d="M157.471 13H154.807L151.987 8.728V13H149.323V4.504H151.987L154.807 8.848V4.504H157.471V13Z" fill="#E9EA4F"/>
<path d="M148.119 4.504V13H145.455V4.504H148.119Z" fill="#E9EA4F"/>
<path d="M144.733 4.504V6.616H142.477V13H139.813V6.616H137.581V4.504H144.733Z" fill="#E9EA4F"/>
<path d="M134.057 6.628V7.672H136.697V9.676H134.057V10.876H137.057V13H131.393V4.504H137.057V6.628H134.057Z" fill="#E9EA4F"/>
<path d="M127.47 13L124.998 9.316V13H122.334V4.504H124.998V8.08L127.434 4.504H130.446L127.518 8.572L130.638 13H127.47Z" fill="#E9EA4F"/>
<path d="M118.567 13L116.971 9.952H116.959V13H114.295V4.504H118.255C118.943 4.504 119.531 4.628 120.019 4.876C120.507 5.116 120.871 5.448 121.111 5.872C121.359 6.288 121.483 6.76 121.483 7.288C121.483 7.856 121.323 8.36 121.003 8.8C120.691 9.24 120.239 9.556 119.647 9.748L121.495 13H118.567ZM116.959 8.176H118.015C118.271 8.176 118.463 8.12 118.591 8.008C118.719 7.888 118.783 7.704 118.783 7.456C118.783 7.232 118.715 7.056 118.579 6.928C118.451 6.8 118.263 6.736 118.015 6.736H116.959V8.176Z" fill="#E9EA4F"/>
<path d="M110.462 11.716H107.63L107.21 13H104.414L107.522 4.504H110.594L113.69 13H110.882L110.462 11.716ZM109.814 9.712L109.046 7.348L108.278 9.712H109.814Z" fill="#E9EA4F"/>
<path d="M103.812 4.504V13H101.16V8.764L99.852 13H97.572L96.264 8.764V13H93.6V4.504H96.864L98.736 9.604L100.56 4.504H103.812Z" fill="#E9EA4F"/>
</svg>
