<svg width="20" height="22" viewBox="0 0 20 22" fill="none" xmlns="http://www.w3.org/2000/svg">
<path fill-rule="evenodd" clip-rule="evenodd" d="M8.92976 0.727888L6.48816 6.18141L1.02546 7.05913C0.559691 7.17674 0.190752 7.5315 0.0552602 7.99259C-0.080232 8.45336 0.0376994 8.95151 0.365555 9.30272L4.31706 13.546L3.38263 19.5405C3.26808 20.0039 3.43322 20.4914 3.8057 20.7894C4.17819 21.0878 4.69003 21.1423 5.1168 20.929L10 18.1005L14.8832 20.929C15.3101 21.141 15.8212 21.0862 16.1932 20.7881C16.5653 20.4904 16.7308 20.0035 16.6174 19.5408L15.6829 13.546L19.6344 9.30272C19.9623 8.95151 20.0802 8.45336 19.9447 7.99259C19.8092 7.5315 19.4403 7.17674 18.9745 7.05913L13.5118 6.18141L11.0702 0.727888C10.8966 0.288706 10.4722 0 10 0C9.52779 0 9.10343 0.288706 8.92976 0.727888Z" fill="#FFB536"/>
</svg>
